# xmcd
#
# Track frame offsets: 
#        150
#        21851
#        41401
#        54098
#        70734
#        96030
#        114068
#        136261
#        167092
#        186316
#        221629
#        239702
#        276411
#        303258
#
# Disc length: 4291 seconds
#
# Revision: 0
# Processed by: cddbd v1.5.2PL0 Copyright (c) Steve Scherf et al.
# Submitted via: ExactAudioCopy v0.99pb5
#
DISCID=bf10c10e
DTITLE=Ray Fuller and the Bluesrockers - Rockin the Blues
DYEAR=2004
DGENRE=Blues
TTITLE0=Drivin' My Blues Away
TTITLE1=Pearlene
TTITLE2=I Hear You Knockin'
TTITLE3=Rattlesnake
TTITLE4=Wild About You Baby
TTITLE5=Be Careful
TTITLE6=Don't You Lie To Me
TTITLE7=Fellin' Evil
TTITLE8=You Got Me Wrong
TTITLE9=Moanin' At Midnight
TTITLE10=Long Black Train
TTITLE11=Birds In The Sky
TTITLE12=Hate To See You Go
TTITLE13=Wherever The Wind May Blow
EXTD=
EXTT0=
EXTT1=
EXTT2=
EXTT3=
EXTT4=
EXTT5=
EXTT6=
EXTT7=
EXTT8=
EXTT9=
EXTT10=
EXTT11=
EXTT12=
EXTT13=
PLAYORDER=
